<svg width="180" height="46" viewBox="0 0 180 46" fill="none" xmlns="http://www.w3.org/2000/svg">
<path d="M65.3973 5.42798L70.0127 13.2454H60.8363L57.5233 18.9078H74.3151L77.6235 13.2454L73.1487 5.69848H86.9906L79.3072 18.9078H86.623L94.3064 5.69848H99.7524L103.038 0.0360671H68.5469L65.3973 5.42798ZM19.5103 20.125L31.1965 0.0360671H23.4586L19.5239 6.77596L15.5982 0.0360671L11.6499 6.77596L7.71516 0.0360671H0L11.6499 20.125L15.5891 13.3626L19.5103 20.125ZM115.069 12.9117L119.154 10.8064L122.548 5.00871L119.825 0.0225411H105.457L94.4698 18.9078H101.795L104.459 14.3273H108.634L109.8 18.9078H116.608L115.069 12.9117ZM58.4763 0.0360671L52.9123 9.60716L50.6023 0.0360671H45.0383L34.0465 18.9078H41.3759L46.9399 9.33667L49.2454 18.9078H54.8094L65.8057 0.0360671H58.4763ZM161.496 0.0360671L150.518 18.9078H168.54L171.689 13.4978H160.997L162.082 11.6088H169.983L172.506 7.29892H164.61L165.694 5.40995H176.255L179.4 0L161.496 0.0360671ZM146.402 0.0360671H139.091L128.099 18.9078H135.41L140.892 9.47192L143.279 18.9078H150.087L147.913 10.2789L160.266 0.0360671H151.58L141.537 8.39443L146.402 0.0360671ZM117.493 18.9078H124.822L135.818 0.0360671H128.507L117.493 18.9078ZM23.4405 18.9078H30.7698L41.7617 0.0360671H34.455L23.4405 18.9078ZM109.623 5.42798H115.351L113.313 8.93092H107.604L109.623 5.42798Z" fill="white"/>
<path d="M84.9291 33.8839H79.9253V31.625H92.7369V33.8839H87.733V46H84.9291V33.8839Z" fill="white"/>
<path d="M103.875 42.6732H96.326L94.8378 46H91.9476L98.7416 31.625H101.502L108.318 46H105.385L103.875 42.6732ZM102.947 40.5786L100.1 34.2946L97.275 40.5786H102.947Z" fill="white"/>
<path d="M123.241 31.625L116.663 46H113.902L107.302 31.625H110.344L115.369 42.7143L120.438 31.625H123.241Z" fill="white"/>
<path d="M136.158 43.7616V46H124.835V31.625H135.856V33.8634H127.639V37.6009H134.929V39.7982H127.639V43.7616H136.158Z" fill="white"/>
<path d="M149.162 46L146.078 41.7902C145.948 41.8039 145.754 41.8107 145.495 41.8107H142.088V46H139.284V31.625H145.495C146.804 31.625 147.94 31.8304 148.903 32.2411C149.881 32.6518 150.629 33.2405 151.146 34.0071C151.664 34.7738 151.923 35.6842 151.923 36.7384C151.923 37.8199 151.642 38.7509 151.082 39.5313C150.535 40.3116 149.744 40.8935 148.709 41.2768L152.182 46H149.162ZM149.097 36.7384C149.097 35.8211 148.781 35.1161 148.148 34.6232C147.516 34.1304 146.588 33.8839 145.366 33.8839H142.088V39.6134H145.366C146.588 39.6134 147.516 39.367 148.148 38.8741C148.781 38.3676 149.097 37.6557 149.097 36.7384Z" fill="white"/>
<path d="M168.475 31.625V46H166.167L157.842 36.2661V46H155.06V31.625H157.368L165.693 41.3589V31.625H168.475Z" fill="white"/>
</svg>
